<mxfile host="app.diagrams.net" modified="2023-09-20T17:33:15.817Z" agent="Mozilla/5.0 (Windows NT 10.0; Win64; x64) AppleWebKit/537.36 (KHTML, like Gecko) Chrome/116.0.0.0 Safari/537.36" etag="FbJ4i8wS3VqWrkYFn3QR" version="21.8.0" type="github">
  <diagram name="PÃ¡gina-1" id="t4cwPOpe5N0HpnnbIakR">
    <mxGraphModel dx="2636" dy="743" grid="0" gridSize="10" guides="1" tooltips="1" connect="1" arrows="1" fold="1" page="1" pageScale="1" pageWidth="1169" pageHeight="827" background="#000000" math="0" shadow="0">
      <root>
        <mxCell id="0" />
        <mxCell id="1" parent="0" />
        <mxCell id="SZ_3P_ArL8m-mg5wEIIs-4" style="edgeStyle=orthogonalEdgeStyle;rounded=0;orthogonalLoop=1;jettySize=auto;html=1;entryX=0;entryY=0.5;entryDx=0;entryDy=0;labelBackgroundColor=none;strokeColor=#FFFFFF;fontColor=default;" parent="1" source="SZ_3P_ArL8m-mg5wEIIs-1" target="SZ_3P_ArL8m-mg5wEIIs-23" edge="1">
          <mxGeometry relative="1" as="geometry">
            <mxPoint x="-668" y="177" as="targetPoint" />
          </mxGeometry>
        </mxCell>
        <mxCell id="SZ_3P_ArL8m-mg5wEIIs-1" value="&lt;font style=&quot;font-size: 14px;&quot;&gt;Start&lt;/font&gt;" style="ellipse;whiteSpace=wrap;html=1;labelBackgroundColor=none;fillColor=#4184b8;strokeColor=#EEEEEE;fontColor=#FFFFFF;rounded=0;" parent="1" vertex="1">
          <mxGeometry x="-868" y="137" width="120" height="80" as="geometry" />
        </mxCell>
        <mxCell id="SZ_3P_ArL8m-mg5wEIIs-5" style="edgeStyle=orthogonalEdgeStyle;rounded=0;orthogonalLoop=1;jettySize=auto;html=1;entryX=0;entryY=0.5;entryDx=0;entryDy=0;exitX=1;exitY=0.5;exitDx=0;exitDy=0;labelBackgroundColor=none;strokeColor=#FFFFFF;fontColor=default;" parent="1" source="SZ_3P_ArL8m-mg5wEIIs-23" target="SZ_3P_ArL8m-mg5wEIIs-3" edge="1">
          <mxGeometry relative="1" as="geometry">
            <mxPoint x="-548" y="177" as="sourcePoint" />
          </mxGeometry>
        </mxCell>
        <mxCell id="SZ_3P_ArL8m-mg5wEIIs-10" style="edgeStyle=orthogonalEdgeStyle;rounded=0;orthogonalLoop=1;jettySize=auto;html=1;entryX=0;entryY=0.5;entryDx=0;entryDy=0;labelBackgroundColor=none;strokeColor=#FFFFFF;fontColor=default;" parent="1" source="SZ_3P_ArL8m-mg5wEIIs-3" target="SZ_3P_ArL8m-mg5wEIIs-36" edge="1">
          <mxGeometry relative="1" as="geometry">
            <mxPoint x="-278" y="177" as="targetPoint" />
          </mxGeometry>
        </mxCell>
        <mxCell id="SZ_3P_ArL8m-mg5wEIIs-56" value="True" style="edgeLabel;html=1;align=center;verticalAlign=middle;resizable=0;points=[];fontSize=11;fontFamily=Helvetica;fontColor=default;" parent="SZ_3P_ArL8m-mg5wEIIs-10" vertex="1" connectable="0">
          <mxGeometry x="-0.3737" y="-4" relative="1" as="geometry">
            <mxPoint as="offset" />
          </mxGeometry>
        </mxCell>
        <mxCell id="SZ_3P_ArL8m-mg5wEIIs-40" style="edgeStyle=orthogonalEdgeStyle;shape=connector;rounded=0;orthogonalLoop=1;jettySize=auto;html=1;exitX=0.5;exitY=0;exitDx=0;exitDy=0;entryX=0;entryY=0.5;entryDx=0;entryDy=0;labelBackgroundColor=none;strokeColor=#FFFFFF;fontFamily=Helvetica;fontSize=11;fontColor=default;endArrow=classic;" parent="1" source="SZ_3P_ArL8m-mg5wEIIs-3" target="SZ_3P_ArL8m-mg5wEIIs-24" edge="1">
          <mxGeometry relative="1" as="geometry" />
        </mxCell>
        <mxCell id="SZ_3P_ArL8m-mg5wEIIs-41" value="False" style="edgeLabel;html=1;align=center;verticalAlign=middle;resizable=0;points=[];fontSize=11;fontFamily=Helvetica;fontColor=default;" parent="SZ_3P_ArL8m-mg5wEIIs-40" vertex="1" connectable="0">
          <mxGeometry x="-0.1613" y="3" relative="1" as="geometry">
            <mxPoint as="offset" />
          </mxGeometry>
        </mxCell>
        <mxCell id="SZ_3P_ArL8m-mg5wEIIs-3" value="Autentica&lt;br&gt;Login" style="rhombus;whiteSpace=wrap;html=1;labelBackgroundColor=none;fillColor=#4184b8;strokeColor=#EEEEEE;fontColor=#FFFFFF;rounded=0;" parent="1" vertex="1">
          <mxGeometry x="-500" y="137" width="80" height="80" as="geometry" />
        </mxCell>
        <mxCell id="SZ_3P_ArL8m-mg5wEIIs-16" style="edgeStyle=orthogonalEdgeStyle;rounded=0;orthogonalLoop=1;jettySize=auto;html=1;entryX=0;entryY=0.5;entryDx=0;entryDy=0;labelBackgroundColor=none;strokeColor=#FFFFFF;fontColor=default;" parent="1" source="SZ_3P_ArL8m-mg5wEIIs-13" target="SZ_3P_ArL8m-mg5wEIIs-1" edge="1">
          <mxGeometry relative="1" as="geometry" />
        </mxCell>
        <mxCell id="SZ_3P_ArL8m-mg5wEIIs-13" value="Cliente" style="shape=umlActor;verticalLabelPosition=bottom;verticalAlign=top;html=1;outlineConnect=0;labelBackgroundColor=none;fillColor=#4184b8;strokeColor=#EEEEEE;fontColor=#FFFFFF;rounded=0;" parent="1" vertex="1">
          <mxGeometry x="-978" y="132" width="50" height="90" as="geometry" />
        </mxCell>
        <mxCell id="SZ_3P_ArL8m-mg5wEIIs-23" value="Tela de Login" style="rounded=0;whiteSpace=wrap;html=1;labelBackgroundColor=none;fillColor=#4184b8;strokeColor=#EEEEEE;fontColor=#FFFFFF;" parent="1" vertex="1">
          <mxGeometry x="-697" y="147" width="120" height="60" as="geometry" />
        </mxCell>
        <mxCell id="SZ_3P_ArL8m-mg5wEIIs-42" style="edgeStyle=orthogonalEdgeStyle;shape=connector;rounded=0;orthogonalLoop=1;jettySize=auto;html=1;entryX=0.5;entryY=0;entryDx=0;entryDy=0;labelBackgroundColor=none;strokeColor=#FFFFFF;fontFamily=Helvetica;fontSize=11;fontColor=default;endArrow=classic;exitX=1;exitY=0.5;exitDx=0;exitDy=0;" parent="1" source="SZ_3P_ArL8m-mg5wEIIs-24" target="SZ_3P_ArL8m-mg5wEIIs-36" edge="1">
          <mxGeometry relative="1" as="geometry" />
        </mxCell>
        <mxCell id="SZ_3P_ArL8m-mg5wEIIs-24" value="Registrar/Login" style="rounded=0;whiteSpace=wrap;html=1;labelBackgroundColor=none;fillColor=#4184b8;strokeColor=#EEEEEE;fontColor=#FFFFFF;" parent="1" vertex="1">
          <mxGeometry x="-415" y="16" width="120" height="60" as="geometry" />
        </mxCell>
        <mxCell id="SZ_3P_ArL8m-mg5wEIIs-45" style="edgeStyle=orthogonalEdgeStyle;shape=connector;rounded=0;orthogonalLoop=1;jettySize=auto;html=1;entryX=0.5;entryY=0;entryDx=0;entryDy=0;labelBackgroundColor=none;strokeColor=#FFFFFF;fontFamily=Helvetica;fontSize=11;fontColor=default;endArrow=classic;" parent="1" source="SZ_3P_ArL8m-mg5wEIIs-25" target="SZ_3P_ArL8m-mg5wEIIs-46" edge="1">
          <mxGeometry relative="1" as="geometry">
            <mxPoint x="-1001" y="381" as="targetPoint" />
          </mxGeometry>
        </mxCell>
        <mxCell id="SZ_3P_ArL8m-mg5wEIIs-49" style="edgeStyle=orthogonalEdgeStyle;shape=connector;rounded=0;orthogonalLoop=1;jettySize=auto;html=1;entryX=0.5;entryY=0;entryDx=0;entryDy=0;labelBackgroundColor=none;strokeColor=#FFFFFF;fontFamily=Helvetica;fontSize=11;fontColor=default;endArrow=classic;" parent="1" source="SZ_3P_ArL8m-mg5wEIIs-25" target="SZ_3P_ArL8m-mg5wEIIs-29" edge="1">
          <mxGeometry relative="1" as="geometry" />
        </mxCell>
        <mxCell id="SZ_3P_ArL8m-mg5wEIIs-51" style="edgeStyle=orthogonalEdgeStyle;shape=connector;rounded=0;orthogonalLoop=1;jettySize=auto;html=1;entryX=0.5;entryY=0;entryDx=0;entryDy=0;labelBackgroundColor=none;strokeColor=#FFFFFF;fontFamily=Helvetica;fontSize=11;fontColor=default;endArrow=classic;" parent="1" source="SZ_3P_ArL8m-mg5wEIIs-25" target="SZ_3P_ArL8m-mg5wEIIs-50" edge="1">
          <mxGeometry relative="1" as="geometry" />
        </mxCell>
        <mxCell id="SZ_3P_ArL8m-mg5wEIIs-53" style="edgeStyle=orthogonalEdgeStyle;shape=connector;rounded=0;orthogonalLoop=1;jettySize=auto;html=1;entryX=0.5;entryY=0;entryDx=0;entryDy=0;labelBackgroundColor=none;strokeColor=#FFFFFF;fontFamily=Helvetica;fontSize=11;fontColor=default;endArrow=classic;" parent="1" source="SZ_3P_ArL8m-mg5wEIIs-25" target="SZ_3P_ArL8m-mg5wEIIs-52" edge="1">
          <mxGeometry relative="1" as="geometry" />
        </mxCell>
        <mxCell id="SZ_3P_ArL8m-mg5wEIIs-55" style="edgeStyle=orthogonalEdgeStyle;shape=connector;rounded=0;orthogonalLoop=1;jettySize=auto;html=1;entryX=0.5;entryY=0;entryDx=0;entryDy=0;labelBackgroundColor=none;strokeColor=#FFFFFF;fontFamily=Helvetica;fontSize=11;fontColor=default;endArrow=classic;" parent="1" source="SZ_3P_ArL8m-mg5wEIIs-25" target="SZ_3P_ArL8m-mg5wEIIs-54" edge="1">
          <mxGeometry relative="1" as="geometry" />
        </mxCell>
        <mxCell id="SZ_3P_ArL8m-mg5wEIIs-25" value="" style="ellipse;whiteSpace=wrap;html=1;aspect=fixed;labelBackgroundColor=none;fillColor=#56517E;strokeColor=#EEEEEE;fontColor=#FFFFFF;rounded=0;" parent="1" vertex="1">
          <mxGeometry x="-597" y="290" width="25" height="25" as="geometry" />
        </mxCell>
        <mxCell id="SZ_3P_ArL8m-mg5wEIIs-29" value="Buscar Chamado" style="rounded=0;whiteSpace=wrap;html=1;labelBackgroundColor=none;fillColor=#4184b8;strokeColor=#EEEEEE;fontColor=#FFFFFF;" parent="1" vertex="1">
          <mxGeometry x="-877" y="385" width="125" height="57" as="geometry" />
        </mxCell>
        <mxCell id="SZ_3P_ArL8m-mg5wEIIs-44" style="edgeStyle=orthogonalEdgeStyle;shape=connector;rounded=0;orthogonalLoop=1;jettySize=auto;html=1;entryX=0.5;entryY=0;entryDx=0;entryDy=0;labelBackgroundColor=none;strokeColor=#FFFFFF;fontFamily=Helvetica;fontSize=11;fontColor=default;endArrow=classic;exitX=0.5;exitY=1;exitDx=0;exitDy=0;" parent="1" source="SZ_3P_ArL8m-mg5wEIIs-36" target="SZ_3P_ArL8m-mg5wEIIs-25" edge="1">
          <mxGeometry relative="1" as="geometry" />
        </mxCell>
        <mxCell id="SZ_3P_ArL8m-mg5wEIIs-36" value="Registrar/Login" style="rounded=0;whiteSpace=wrap;html=1;labelBackgroundColor=none;fillColor=#4184b8;strokeColor=#EEEEEE;fontColor=#FFFFFF;" parent="1" vertex="1">
          <mxGeometry x="-321" y="147" width="120" height="60" as="geometry" />
        </mxCell>
        <mxCell id="SZ_3P_ArL8m-mg5wEIIs-46" value="Abrir Chamado" style="rounded=0;whiteSpace=wrap;html=1;labelBackgroundColor=none;fillColor=#4184b8;strokeColor=#EEEEEE;fontColor=#FFFFFF;" parent="1" vertex="1">
          <mxGeometry x="-1158" y="385" width="125" height="57" as="geometry" />
        </mxCell>
        <mxCell id="SZ_3P_ArL8m-mg5wEIIs-50" value="Alterar dados de login" style="rounded=0;whiteSpace=wrap;html=1;labelBackgroundColor=none;fillColor=#4184b8;strokeColor=#EEEEEE;fontColor=#FFFFFF;" parent="1" vertex="1">
          <mxGeometry x="-436" y="385" width="125" height="57" as="geometry" />
        </mxCell>
        <mxCell id="SZ_3P_ArL8m-mg5wEIIs-52" value="Excluir login" style="rounded=0;whiteSpace=wrap;html=1;labelBackgroundColor=none;fillColor=#4184b8;strokeColor=#EEEEEE;fontColor=#FFFFFF;" parent="1" vertex="1">
          <mxGeometry x="-135" y="385" width="125" height="57" as="geometry" />
        </mxCell>
        <mxCell id="SZ_3P_ArL8m-mg5wEIIs-54" value="Buscar dados de login" style="rounded=0;whiteSpace=wrap;html=1;labelBackgroundColor=none;fillColor=#4184b8;strokeColor=#EEEEEE;fontColor=#FFFFFF;" parent="1" vertex="1">
          <mxGeometry x="-647" y="385" width="125" height="57" as="geometry" />
        </mxCell>
      </root>
    </mxGraphModel>
  </diagram>
</mxfile>
